<svg xmlns="http://www.w3.org/2000/svg" xmlns:xlink="http://www.w3.org/1999/xlink" width="124.242" height="26" viewBox="0 0 124.242 26"><defs><linearGradient id="a" x1="0.876" y1="0.231" x2="-0.083" y2="0.835" gradientUnits="objectBoundingBox"><stop offset="0.007" stop-color="#40b8e5"/><stop offset="0.992" stop-color="#0555fa"/></linearGradient><linearGradient id="b" x1="-0.093" y1="0.562" x2="1.203" y2="0.409" gradientUnits="objectBoundingBox"><stop offset="0.071" stop-color="#40b8e5"/><stop offset="0.986" stop-color="#0555fa"/></linearGradient><linearGradient id="c" x1="0.395" y1="0.027" x2="0.631" y2="0.745" gradientUnits="objectBoundingBox"><stop offset="0" stop-color="#40b8e5" stop-opacity="0"/><stop offset="0.01" stop-color="#40b8e5" stop-opacity="0.016"/><stop offset="0.259" stop-color="#40b8e5" stop-opacity="0.431"/><stop offset="0.46" stop-color="#40b8e5" stop-opacity="0.737"/><stop offset="0.605" stop-color="#40b8e5" stop-opacity="0.929"/><stop offset="0.678" stop-color="#40b8e5"/><stop offset="0.937" stop-color="#40b8e5"/></linearGradient><linearGradient id="d" x1="0.351" y1="0.229" x2="0.623" y2="1.005" gradientUnits="objectBoundingBox"><stop offset="0.017" stop-color="#40b8e5"/><stop offset="0.22" stop-color="#40b8e5"/><stop offset="0.305" stop-color="#40b8e5" stop-opacity="0.929"/><stop offset="0.47" stop-color="#40b8e5" stop-opacity="0.737"/><stop offset="0.702" stop-color="#40b8e5" stop-opacity="0.431"/><stop offset="0.989" stop-color="#40b8e5" stop-opacity="0.016"/><stop offset="1" stop-color="#40b8e5" stop-opacity="0"/></linearGradient><linearGradient id="e" x1="-0.114" y1="0.701" x2="0.766" y2="0.396" gradientUnits="objectBoundingBox"><stop offset="0.27" stop-color="#40b8e5"/><stop offset="0.339" stop-color="#40b8e5" stop-opacity="0.949"/><stop offset="0.461" stop-color="#40b8e5" stop-opacity="0.82"/><stop offset="0.623" stop-color="#40b8e5" stop-opacity="0.604"/><stop offset="0.816" stop-color="#40b8e5" stop-opacity="0.31"/><stop offset="1" stop-color="#40b8e5" stop-opacity="0"/></linearGradient><linearGradient id="f" x1="0.2" y1="0.686" x2="0.901" y2="0.267" gradientUnits="objectBoundingBox"><stop offset="0.008" stop-color="#2387ef"/><stop offset="0.986" stop-color="#1976f2"/></linearGradient><linearGradient id="g" x1="0.273" y1="0.891" x2="0.68" y2="0.204" gradientUnits="objectBoundingBox"><stop offset="0.009" stop-color="#2d99eb"/><stop offset="0.99" stop-color="#2387ef"/></linearGradient><linearGradient id="h" x1="0.268" y1="0.102" x2="0.686" y2="0.797" gradientUnits="objectBoundingBox"><stop offset="0.007" stop-color="#2d99eb"/><stop offset="1" stop-color="#39ace8"/></linearGradient><linearGradient id="i" x1="0.143" y1="0.291" x2="0.954" y2="0.762" gradientUnits="objectBoundingBox"><stop offset="0" stop-color="#39ace8"/><stop offset="1" stop-color="#40b8e5"/></linearGradient><linearGradient id="j" x1="0.5" y1="0.471" x2="0.5" y2="1" gradientUnits="objectBoundingBox"><stop offset="0.021" stop-color="#2d9fe6" stop-opacity="0.996"/><stop offset="1" stop-color="#2d9fe6" stop-opacity="0"/></linearGradient><linearGradient id="k" y1="0.5" x2="1" y2="0.5" gradientUnits="objectBoundingBox"><stop offset="0" stop-color="#0555fa"/><stop offset="0.968" stop-color="#2d9fe6"/></linearGradient><linearGradient id="l" x1="0.256" y1="0.131" x2="1.222" y2="0.879" gradientUnits="objectBoundingBox"><stop offset="0.009" stop-color="#1976f2"/><stop offset="0.99" stop-color="#0555fa"/></linearGradient><linearGradient id="m" x1="-0.114" y1="0.701" x2="0.766" y2="0.396" xlink:href="#e"/><linearGradient id="n" x1="0.2" y1="0.686" x2="0.901" y2="0.267" xlink:href="#f"/><linearGradient id="s" x1="0.5" y1="0.955" x2="0.5" y2="-0.012" gradientUnits="objectBoundingBox"><stop offset="0.318" stop-color="#0656fa"/><stop offset="0.399" stop-color="#095cf8"/><stop offset="0.507" stop-color="#136df5"/><stop offset="0.63" stop-color="#2489ef"/><stop offset="0.764" stop-color="#3bafe7"/><stop offset="0.793" stop-color="#41b9e6"/><stop offset="1" stop-color="#41b9e6" stop-opacity="0"/></linearGradient><linearGradient id="t" x1="0.664" y1="0.843" x2="0.285" y2="0.248" gradientUnits="objectBoundingBox"><stop offset="0" stop-color="#0555fa"/><stop offset="1" stop-color="#0555fa"/></linearGradient><linearGradient id="u" x1="0.792" y1="0.676" x2="0.1" y2="0.269" gradientUnits="objectBoundingBox"><stop offset="0" stop-color="#0555fa"/><stop offset="1" stop-color="#1976f2"/></linearGradient><linearGradient id="v" x1="0.2" y1="0.686" x2="0.901" y2="0.267" gradientUnits="objectBoundingBox"><stop offset="0" stop-color="#2387ef"/><stop offset="1" stop-color="#1976f2"/></linearGradient><linearGradient id="w" x1="0.273" y1="0.891" x2="0.68" y2="0.204" gradientUnits="objectBoundingBox"><stop offset="0" stop-color="#2d99eb"/><stop offset="1" stop-color="#2387ef"/></linearGradient><linearGradient id="x" x1="0.268" y1="0.102" x2="0.686" y2="0.797" gradientUnits="objectBoundingBox"><stop offset="0" stop-color="#2d99eb"/><stop offset="1" stop-color="#39ace8"/></linearGradient><linearGradient id="z" x1="-0.001" y1="1.167" x2="0.74" y2="0.036" xlink:href="#e"/><linearGradient id="ag" x1="0.5" y1="0.987" x2="0.5" y2="0.02" gradientUnits="objectBoundingBox"><stop offset="0" stop-color="#0555fa"/><stop offset="0.218" stop-color="#0555fa"/><stop offset="0.331" stop-color="#0f66f5"/><stop offset="0.555" stop-color="#2993e9"/><stop offset="0.581" stop-color="#2d99e8"/><stop offset="0.622" stop-color="#2d99e8" stop-opacity="0.973"/><stop offset="0.678" stop-color="#2d99e8" stop-opacity="0.898"/><stop offset="0.742" stop-color="#2d99e8" stop-opacity="0.773"/><stop offset="0.814" stop-color="#2d99e8" stop-opacity="0.596"/><stop offset="0.891" stop-color="#2d99e8" stop-opacity="0.376"/><stop offset="0.971" stop-color="#2d99e8" stop-opacity="0.106"/><stop offset="1" stop-color="#2d99e8" stop-opacity="0"/></linearGradient></defs><g transform="translate(0 0)"><rect width="2.921" height="10.223" transform="translate(89.543 15.748) rotate(-69.71)" fill="#c6c6c6"/><path d="M358.836,26.112a7,7,0,0,0-6.952,6.876c0,.785.071,1.773.071,1.773l1.818.672,1.013-2.74h0a4.548,4.548,0,0,1,4.1-3.661h.063v-2.92Z" transform="translate(-264.23 -19.686)" fill="url(#a)"/><path d="M386.907,67.633l-.063-.271-1.626-.6-1.013,2.74c0,2.12-2,3.786-4.378,3.786q-.093,0-.184,0V76.2c.078,0,.157,0,.237,0a7.083,7.083,0,0,0,7.146-7.141A5.635,5.635,0,0,0,386.907,67.633Z" transform="translate(-285.074 -50.208)" fill="url(#b)"/><path d="M354.96,78.776l-2.889.771a7.1,7.1,0,0,0,6.959,5.682v-2.92A4.121,4.121,0,0,1,354.96,78.776Z" transform="translate(-264.371 -59.23)" fill="url(#c)"/><path d="M380,26.114v2.92a3.957,3.957,0,0,1,4.208,3.377l2.924-.724A7.009,7.009,0,0,0,380,26.114Z" transform="translate(-285.343 -19.688)" fill="url(#d)"/><g transform="translate(42.799 6.427)"><g transform="translate(9.809 15.486)"><path d="M211.215,89.44v2.921a9.739,9.739,0,0,0,5.453-1.662l-1.628-2.425A6.831,6.831,0,0,1,211.215,89.44Z" transform="translate(-211.215 -88.274)" fill="url(#e)"/></g><path d="M190.087,29.036V26.115a9.756,9.756,0,0,0-6.98,2.927l2.083,2.047A6.845,6.845,0,0,1,190.087,29.036Z" transform="translate(-180.301 -26.115)" fill="url(#f)"/><path d="M174.763,44.541a6.844,6.844,0,0,1,2.011-4.855l-2.065-2.065a9.755,9.755,0,0,0-2.866,7.005h0l2.921-.025C174.764,44.581,174.763,44.561,174.763,44.541Z" transform="translate(-171.843 -34.754)" fill="url(#g)"/><path d="M174.764,65.4h-2.921a9.756,9.756,0,0,0,2.927,6.98l2.047-2.083A6.844,6.844,0,0,1,174.764,65.4Z" transform="translate(-171.843 -55.61)" fill="url(#h)"/><path d="M190.269,86.893a6.844,6.844,0,0,1-4.855-2.011l-2.065,2.065a9.756,9.756,0,0,0,7.005,2.866l-.025-2.921Z" transform="translate(-180.482 -70.241)" fill="url(#i)"/></g><rect width="2.921" height="10.223" transform="translate(22.368 7.223)" fill="#c6c6c6"/><rect width="2.921" height="10.223" transform="translate(36.988 15.48)" fill="#c6c6c6"/><path d="M136.034,35.179h-2.921v-.961A5.154,5.154,0,0,0,128,29.05V26.129a8.08,8.08,0,0,1,8.032,8.089Z" transform="translate(-96.126 -19.699)" fill="url(#j)"/><g transform="translate(25.289 6.43)"><path d="M108.064,26.127a9.217,9.217,0,0,0-6.5,2.667v5.931c.44-2.345,2.518-5.677,6.5-5.677.073,0,.146,0,.219,0V26.13Z" transform="translate(-101.561 -26.127)" fill="url(#k)"/></g><g transform="translate(52.5 6.427)"><path d="M217.873,29.017,217.853,29h0l0,0-.026-.027h0a9.947,9.947,0,0,0-6.956-2.853h-.086l.026,2.921h.06a6.889,6.889,0,0,1,6.865,6.133h.142Z" transform="translate(-210.781 -26.115)" fill="url(#l)"/></g><g transform="translate(104.669 6.427)"><g transform="translate(9.809 15.486)"><path d="M459.554,89.44v2.921a9.738,9.738,0,0,0,5.453-1.662l-1.627-2.425A6.831,6.831,0,0,1,459.554,89.44Z" transform="translate(-459.554 -88.274)" fill="url(#m)"/></g><path d="M438.426,29.036V26.115a9.756,9.756,0,0,0-6.98,2.927l2.083,2.047A6.845,6.845,0,0,1,438.426,29.036Z" transform="translate(-428.639 -26.115)" fill="url(#n)"/><path d="M423.1,44.541a6.844,6.844,0,0,1,2.011-4.855l-2.065-2.065a9.755,9.755,0,0,0-2.866,7.005h0L423.1,44.6C423.1,44.581,423.1,44.561,423.1,44.541Z" transform="translate(-420.181 -34.754)" fill="url(#g)"/><path d="M423.1,65.4h-2.921a9.756,9.756,0,0,0,2.927,6.98l2.047-2.083A6.845,6.845,0,0,1,423.1,65.4Z" transform="translate(-420.181 -55.61)" fill="url(#h)"/><path d="M438.607,86.893a6.844,6.844,0,0,1-4.855-2.011l-2.065,2.065a9.756,9.756,0,0,0,7.005,2.866l-.026-2.921Z" transform="translate(-428.82 -70.241)" fill="url(#i)"/></g><g transform="translate(114.37 6.427)"><path d="M466.212,29.017l-.02-.021h0l0,0-.026-.027h0a9.948,9.948,0,0,0-6.956-2.853h-.086l.025,2.921h.06a6.889,6.889,0,0,1,6.865,6.133h.142Z" transform="translate(-459.12 -26.115)" fill="url(#l)"/></g><rect width="2.921" height="8.623" transform="translate(121.321 6.856)" fill="url(#s)"/><rect width="2.921" height="10.223" transform="translate(121.321 15.48)" fill="#c6c6c6"/><path d="M60.534,42.654h2.985a9.748,9.748,0,0,0-2.8-5.3l-2.047,2.083A6.837,6.837,0,0,1,60.534,42.654Z" transform="translate(-44.071 -28.129)" fill="url(#t)"/><path d="M39.078,29.036a6.884,6.884,0,0,1,4.861,2L46,28.976a9.793,9.793,0,0,0-6.926-2.861h-.085l.026,2.921Z" transform="translate(-29.292 -19.688)" fill="url(#u)"/><path d="M18.3,29.036V26.115a9.756,9.756,0,0,0-6.98,2.927L13.4,31.089A6.845,6.845,0,0,1,18.3,29.036Z" transform="translate(-8.513 -19.688)" fill="url(#v)"/><path d="M2.976,44.541a6.844,6.844,0,0,1,2.011-4.855L2.922,37.621a9.755,9.755,0,0,0-2.867,6.92c0,.029,0,.057,0,.085L2.976,44.6C2.976,44.581,2.976,44.561,2.976,44.541Z" transform="translate(-0.055 -28.328)" fill="url(#w)"/><path d="M2.976,65.4H.055a9.756,9.756,0,0,0,2.927,6.98l2.047-2.083A6.844,6.844,0,0,1,2.976,65.4Z" transform="translate(-0.055 -49.183)" fill="url(#x)"/><path d="M18.481,86.893a6.844,6.844,0,0,1-4.855-2.011l-2.065,2.065a9.756,9.756,0,0,0,6.92,2.867h.085l-.025-2.921Z" transform="translate(-8.694 -63.814)" fill="url(#i)"/><g transform="translate(9.786 20.393)"><path d="M44.783,82.174a6.855,6.855,0,0,1-5.447,2.686v2.921A9.771,9.771,0,0,0,47.1,83.952Z" transform="translate(-39.336 -82.174)" fill="url(#z)"/></g><rect width="10.223" height="2.921" transform="translate(9.225 14.525)" fill="#c6c6c6"/><path d="M322.582,42.654h2.985a9.748,9.748,0,0,0-2.8-5.3l-2.047,2.083A6.837,6.837,0,0,1,322.582,42.654Z" transform="translate(-240.833 -28.129)" fill="url(#t)"/><path d="M301.126,29.036a6.884,6.884,0,0,1,4.861,2l2.065-2.065a9.792,9.792,0,0,0-6.926-2.861h-.085l.026,2.921Z" transform="translate(-226.054 -19.688)" fill="url(#u)"/><path d="M280.347,29.036V26.115a9.756,9.756,0,0,0-6.98,2.927l2.083,2.047A6.845,6.845,0,0,1,280.347,29.036Z" transform="translate(-205.275 -19.688)" fill="url(#v)"/><path d="M265.024,44.541a6.844,6.844,0,0,1,2.011-4.855l-2.065-2.065a9.755,9.755,0,0,0-2.867,6.92c0,.029,0,.057,0,.085l2.921-.025C265.024,44.581,265.024,44.561,265.024,44.541Z" transform="translate(-196.817 -28.328)" fill="url(#w)"/><path d="M265.024,65.4H262.1a9.756,9.756,0,0,0,2.927,6.98l2.047-2.083A6.844,6.844,0,0,1,265.024,65.4Z" transform="translate(-196.817 -49.183)" fill="url(#x)"/><path d="M280.529,86.893a6.844,6.844,0,0,1-4.855-2.011l-2.065,2.065a9.756,9.756,0,0,0,6.92,2.867h.085l-.025-2.921Z" transform="translate(-205.456 -63.814)" fill="url(#i)"/><rect width="10.223" height="2.921" transform="translate(74.511 14.525)" fill="#c6c6c6"/><rect width="2.921" height="10.223" transform="translate(59.45 15.48)" fill="#c6c6c6"/><rect width="2.921" height="15.48" transform="translate(59.45)" fill="url(#ag)"/></g></svg>