<svg xmlns="http://www.w3.org/2000/svg" xmlns:xlink="http://www.w3.org/1999/xlink" width="121px" height="121px" viewBox="0 0 121 121"><title>G9 Logo</title><defs><linearGradient x1="14.0111781%" y1="99.6697847%" x2="86.6975969%" y2="6.02002488%" id="linearGradient-1"><stop stop-color="#EE557F" offset="0%"></stop><stop stop-color="#9C3E89" offset="29.9174702%"></stop><stop stop-color="#1D258F" offset="66.0395269%"></stop><stop stop-color="#3D5DB3" offset="100%"></stop></linearGradient><path d="M88.0065647,0.0569325153 C78.2787263,0.829202454 64.6561697,2.24441718 50.2458842,4.78552147 L50.2458842,4.78552147 C35.8355987,7.32638037 22.5507103,10.6557055 13.1453254,13.2569325 L13.1453254,13.2569325 C4.86607375,15.5467485 -0.62299792,23.3865031 0.0567556801,31.9494479 L0.0567556801,31.9494479 C0.829024481,41.6773006 2.24423712,55.2996319 4.78533767,69.7099387 L4.78533767,69.7099387 C7.32619282,84.1207362 10.6555131,97.4051534 13.2567362,106.810798 L13.2567362,106.810798 C15.5465488,115.089816 23.3862919,120.579141 31.949224,119.899387 L31.949224,119.899387 C41.6770625,119.126871 55.2993737,117.711656 69.7096592,115.170798 L69.7096592,115.170798 C84.1201901,112.629939 97.4050785,109.300859 106.810463,106.699141 L106.810463,106.699141 C115.08947,104.409325 120.578787,96.569816 119.899033,88.0068712 L119.899033,88.0068712 C119.126764,78.2790184 117.711306,64.6564417 115.170451,50.246135 L115.170451,50.246135 C112.629351,35.8358282 109.300276,22.5509202 106.699053,13.1455215 L106.699053,13.1455215 C104.537093,5.32907975 97.4298637,0 89.4362559,0 L89.4362559,0 C88.9628823,0 88.485337,0.0188957055 88.0065647,0.0569325153" id="path-2"></path></defs><g id="Page-1" stroke="none" stroke-width="1" fill="none" fill-rule="evenodd"><g id="Medium-Copy" transform="translate(-69, -51)"><g id="G9-Logo" transform="translate(69.2297, 51.639)"><g id="Group-4" transform="translate(0, 0)"><mask id="mask-3" fill="white"><use xlink:href="#path-2"></use></mask><use id="Clip-3" fill="url(#linearGradient-1)" xlink:href="#path-2"></use></g><g id="Group-9" transform="translate(21.3013, 53.6791)" fill="#FFFFFF"><path d="M60.1395772,22.6169197 C56.2917301,22.6851405 53.2902621,18.7113982 54.6178675,15.0475945 C56.334184,9.99532457 63.6789585,10.0100485 65.3717167,15.064527 C66.6458253,18.6004779 64.0379763,22.6601098 60.2006814,22.6166743 L60.1395772,22.6169197 Z M77.0220063,15.2345884 C75.5559962,5.78280923 67.3390758,-1.19289629 57.6583538,0.170539293 C48.9781212,1.23679696 42.3904009,9.64293193 43.2873321,18.3452632 C43.6996014,23.5467356 46.6711308,28.5379013 51.4316146,30.8014595 C53.0605692,31.5823184 54.9651063,32.1933614 55.7943075,32.9410914 C55.9918532,33.116797 56.1660861,33.3150792 56.2505032,33.5496804 C56.4725887,34.2883307 55.9086632,34.8338522 54.9798302,35.6738522 C52.9265817,37.318024 50.3310027,39.5023184 51.0230262,42.4500485 C52.2021656,47.0434227 58.0738134,46.5261221 61.4897592,44.8372878 C71.6090081,40.065754 79.0087518,26.4453859 77.0325584,15.2956927 L77.0220063,15.2345884 Z" id="Fill-5"></path><path d="M33.5250643,18.8751037 C32.1446982,18.6373123 30.6899764,18.6147356 29.2821257,18.6176804 C27.1282639,18.6412387 24.8276538,18.7504411 23.2254475,19.506024 C21.0836102,20.4338767 19.716741,22.9541221 20.4855743,25.2265148 C21.4333029,28.9987847 27.9204099,28.968846 26.4543998,31.1840608 C25.9797993,31.7928951 25.1451993,32.1742448 24.3972249,32.4144902 C20.8041014,33.5666375 16.4593225,31.9472509 14.3817796,28.8513 C10.3996996,23.3425884 13.0956465,14.9978031 19.8256979,13.336208 C23.3493737,12.3254105 26.7537859,14.097435 30.2426151,14.3698276 C32.9680099,14.5992755 36.3162258,13.1710546 36.5422377,10.1354718 C36.7402742,7.5965761 34.9213812,5.0976804 32.8651879,3.47264972 C29.3709599,0.667005551 24.9196782,-0.0115220562 20.5849606,0.326637453 C13.9741728,0.782342974 7.89442717,4.36418347 4.1363959,9.74725095 C-4.07537114,21.3219749 0.394315523,38.2272509 13.5221489,43.8672509 C18.4237368,45.8657786 23.824465,46.4873736 28.9331692,44.5747356 C32.4916915,43.1857786 35.6983126,40.6849197 37.610457,37.3605025 C41.1122923,31.7335086 41.8421072,20.413754 33.5834691,18.8856559 L33.5250643,18.8751037 Z" id="Fill-7"></path></g></g></g></g></svg>