<?xml version="1.0" encoding="UTF-8" standalone="no"?>
<!DOCTYPE svg PUBLIC "-//W3C//DTD SVG 1.1//EN" "http://www.w3.org/Graphics/SVG/1.1/DTD/svg11.dtd">
<svg width="100%" height="100%" viewBox="0 0 3308 1182" version="1.1" xmlns="http://www.w3.org/2000/svg" xmlns:xlink="http://www.w3.org/1999/xlink" xml:space="preserve" xmlns:serif="http://www.serif.com/" style="fill-rule:evenodd;clip-rule:evenodd;stroke-linejoin:round;stroke-miterlimit:2;">
    <g transform="matrix(10.5145,0,0,10.5145,-1361.57,-2858.34)">
        <rect x="133.33" y="273.778" width="8.845" height="77.905" style="fill:rgb(57,42,147);"/>
    </g>
    <g transform="matrix(10.5145,0,0,10.5145,663.787,848.06)">
        <path d="M0,-54.623L8.842,-54.623L8.842,-20.396C8.842,-14.234 6.804,-9.314 2.724,-5.648C-1.356,-1.884 -6.647,0 -13.154,0C-19.664,0 -24.955,-1.884 -29.036,-5.648C-33.107,-9.314 -35.146,-14.234 -35.146,-20.396L-35.146,-54.623L-26.313,-54.623L-26.313,-21.891C-26.313,-12.537 -21.926,-7.861 -13.154,-7.861C-4.382,-7.861 0,-12.537 0,-21.891L0,-54.623Z" style="fill:rgb(57,42,147);fill-rule:nonzero;"/>
    </g>
    <g transform="matrix(10.5145,0,0,10.5145,905.899,273.724)">
        <path d="M0,53.803L0,46.557L30.622,7.915L30.622,7.503L0.106,7.503L0.106,0L41.007,0L41.007,7.397L10.486,45.89L10.486,46.352L41.216,46.352L41.216,53.803L0,53.803Z" style="fill:rgb(57,42,147);fill-rule:nonzero;"/>
    </g>
    <g transform="matrix(10.5145,0,0,10.5145,1862.14,159.726)">
        <path d="M0,52.311C-2.498,55.909 -6.404,57.707 -11.713,57.707C-16.887,57.707 -20.746,55.909 -23.276,52.311C-25.813,48.682 -27.084,43.846 -27.084,37.822C-27.084,31.789 -25.813,26.908 -23.276,23.177C-20.773,19.613 -16.918,17.831 -11.713,17.831C-6.404,17.831 -2.498,19.613 0,23.177C2.43,26.908 3.656,31.789 3.656,37.822C3.656,43.846 2.43,48.682 0,52.311M6.428,17.727C2.25,12.523 -3.805,9.915 -11.713,9.915C-18.078,9.915 -23.236,11.617 -27.18,15.013L-27.18,-13.26L-36.025,-13.26L-36.025,64.645L-27.18,64.645L-27.18,60.602C-23.253,63.911 -18.1,65.571 -11.713,65.571C-3.699,65.571 2.383,62.988 6.525,57.81C10.6,52.706 12.639,46.041 12.639,37.822C12.639,29.598 10.564,22.899 6.428,17.727" style="fill:rgb(57,42,147);fill-rule:nonzero;"/>
    </g>
    <g transform="matrix(10.5145,0,0,10.5145,2773.51,344.362)">
        <path d="M0,40.327C-3.897,35.165 -5.897,28.427 -5.897,20.325C-5.897,12.006 -3.897,5.268 0,0.109C3.894,-5.048 9.579,-7.684 16.948,-7.684C24.426,-7.684 29.792,-4.84 33.161,0.739L33.584,0.739L34.742,-6.734L42.426,-6.734L42.426,47.064L34.742,47.064L34.005,39.591L33.584,39.591C30.737,44.748 24.739,48.011 17.056,48.011C9.686,48.011 3.999,45.483 0,40.327M33.794,20.218C33.794,8.744 28.53,0.216 18.426,0.216C7.894,0.216 3.05,8.427 3.05,20.218C3.05,32.114 7.894,40.119 18.426,40.119C28.639,40.119 33.794,31.901 33.794,20.218" style="fill:rgb(57,42,147);fill-rule:nonzero;"/>
    </g>
    <g transform="matrix(10.5145,0,0,10.5145,2198.05,547.017)">
        <path d="M0,4.475C0.039,4.5 0.09,4.514 0.137,4.514C0.16,4.514 0.184,4.508 0.203,4.504L4.605,3.325C4.736,3.289 4.82,3.157 4.791,3.018C4.633,2.239 4.566,1.434 4.586,0.629C4.59,0.493 4.482,0.371 4.346,0.358L-0.191,-0.039L-0.211,-0.039C-0.277,-0.039 -0.338,-0.016 -0.385,0.027C-0.443,0.078 -0.475,0.143 -0.477,0.216C-0.537,1.588 -0.42,2.967 -0.121,4.307C-0.107,4.379 -0.063,4.438 0,4.475" style="fill:rgb(57,42,147);fill-rule:nonzero;"/>
    </g>
    <g transform="matrix(10.5145,0,0,10.5145,2196.78,495.972)">
        <path d="M0,4.031L4.533,4.43L4.555,4.43C4.686,4.43 4.797,4.336 4.816,4.205C4.936,3.413 5.143,2.633 5.436,1.885C5.484,1.756 5.43,1.61 5.303,1.553L1.174,-0.372C1.141,-0.39 1.102,-0.399 1.064,-0.399C1.031,-0.399 0.996,-0.392 0.967,-0.382C0.902,-0.356 0.848,-0.302 0.82,-0.233C0.295,1.03 -0.061,2.369 -0.238,3.738C-0.248,3.807 -0.227,3.878 -0.184,3.931C-0.139,3.994 -0.072,4.026 0,4.031" style="fill:rgb(130,48,137);fill-rule:nonzero;"/>
    </g>
    <g transform="matrix(10.5145,0,0,10.5145,2376.57,660.392)">
        <path d="M0,5.58C0.049,5.618 0.104,5.638 0.168,5.638L0.203,5.638C1.566,5.46 2.904,5.104 4.176,4.578C4.238,4.55 4.293,4.499 4.316,4.432C4.344,4.364 4.342,4.291 4.307,4.226L2.383,0.093C2.342,0 2.246,-0.058 2.146,-0.058C2.111,-0.058 2.08,-0.05 2.051,-0.038C1.299,0.253 0.52,0.464 -0.27,0.579C-0.406,0.6 -0.506,0.726 -0.49,0.864L-0.094,5.399C-0.09,5.468 -0.051,5.536 0,5.58" style="fill:rgb(57,42,147);fill-rule:nonzero;"/>
    </g>
    <g transform="matrix(10.5145,0,0,10.5145,2226.15,657.935)">
        <path d="M0,-0.322C-0.006,-0.255 0.01,-0.179 0.055,-0.127C0.469,0.42 0.93,0.944 1.414,1.43C1.895,1.911 2.416,2.367 2.963,2.785C3.008,2.821 3.064,2.838 3.123,2.838C3.135,2.838 3.146,2.834 3.158,2.834C3.232,2.823 3.295,2.785 3.338,2.727L5.949,-1.005C6.031,-1.123 6.008,-1.277 5.9,-1.363C5.578,-1.619 5.273,-1.891 5,-2.162C4.727,-2.437 4.457,-2.74 4.203,-3.058C4.15,-3.125 4.074,-3.16 3.996,-3.16C3.945,-3.16 3.891,-3.144 3.846,-3.115L0.111,-0.497C0.055,-0.459 0.014,-0.394 0,-0.322" style="fill:rgb(130,48,137);fill-rule:nonzero;"/>
    </g>
    <g transform="matrix(10.5145,0,0,10.5145,2134.39,610.437)">
        <path d="M0,-6.579C-0.063,-6.579 -0.125,-6.558 -0.174,-6.516C-0.227,-6.468 -0.26,-6.399 -0.264,-6.332C-0.381,-4.268 -0.199,-2.209 0.27,-0.203C0.283,-0.131 0.328,-0.073 0.391,-0.038C0.43,-0.012 0.479,0 0.523,0C0.547,0 0.57,-0.003 0.59,-0.008L4.988,-1.185C5.121,-1.221 5.209,-1.359 5.176,-1.498C4.85,-2.944 4.721,-4.428 4.793,-5.905C4.799,-6.051 4.695,-6.17 4.555,-6.183L0.021,-6.577C0.014,-6.579 0.006,-6.579 0,-6.579" style="fill:rgb(130,48,137);fill-rule:nonzero;"/>
    </g>
    <g transform="matrix(10.5145,0,0,10.5145,2477.04,798.288)">
        <path d="M0,2.347L-2.211,-2.38C-2.252,-2.475 -2.35,-2.532 -2.447,-2.532C-2.484,-2.532 -2.52,-2.52 -2.551,-2.51C-4.533,-1.657 -6.633,-1.098 -8.795,-0.844C-8.934,-0.831 -9.037,-0.7 -9.025,-0.561L-8.566,4.638C-8.564,4.708 -8.529,4.771 -8.475,4.815C-8.43,4.855 -8.369,4.879 -8.309,4.879C-8.297,4.879 -8.291,4.879 -8.277,4.874C-5.457,4.563 -2.721,3.827 -0.139,2.7C-0.07,2.674 -0.02,2.618 0.006,2.553C0.029,2.486 0.023,2.416 0,2.347" style="fill:rgb(57,42,147);fill-rule:nonzero;"/>
    </g>
    <g transform="matrix(10.5145,0,0,10.5145,2306.07,753.143)">
        <path d="M0,-2.999C-1.418,-3.436 -2.77,-4.067 -4.016,-4.868C-4.057,-4.896 -4.109,-4.91 -4.158,-4.91C-4.24,-4.91 -4.322,-4.871 -4.375,-4.797L-6.986,-1.068C-7.023,-1.01 -7.041,-0.934 -7.027,-0.867C-7.012,-0.797 -6.973,-0.738 -6.91,-0.692C-5.186,0.432 -3.307,1.312 -1.33,1.898C-1.305,1.906 -1.281,1.911 -1.256,1.911C-1.211,1.911 -1.168,1.898 -1.127,1.877C-1.063,1.841 -1.021,1.783 -1.002,1.715L0.176,-2.68C0.211,-2.816 0.135,-2.961 0,-2.999" style="fill:rgb(94,45,142);fill-rule:nonzero;"/>
    </g>
    <g transform="matrix(10.5145,0,0,10.5145,2290.1,810.511)">
        <path d="M0,-2.792C-2.08,-3.404 -4.051,-4.325 -5.857,-5.513C-5.902,-5.544 -5.953,-5.555 -6.004,-5.555C-6.086,-5.555 -6.17,-5.52 -6.219,-5.443L-9.207,-1.178C-9.252,-1.116 -9.266,-1.047 -9.252,-0.976C-9.238,-0.905 -9.199,-0.845 -9.139,-0.81C-6.791,0.761 -4.219,1.965 -1.5,2.753C-1.479,2.763 -1.453,2.763 -1.43,2.763C-1.385,2.763 -1.338,2.753 -1.301,2.731C-1.238,2.699 -1.189,2.64 -1.174,2.569L0.178,-2.467C0.217,-2.606 0.137,-2.747 0,-2.792" style="fill:rgb(57,42,147);fill-rule:nonzero;"/>
    </g>
    <g transform="matrix(10.5145,0,0,10.5145,2384.03,715.798)">
        <path d="M0,6.208C2.051,5.968 4.051,5.435 5.947,4.627C6.01,4.602 6.059,4.546 6.09,4.48C6.111,4.411 6.111,4.34 6.08,4.274L4.156,0.142C4.117,0.054 4.02,-0.005 3.922,-0.002C3.887,-0.002 3.85,0.004 3.816,0.017C2.451,0.588 1.014,0.968 -0.461,1.159C-0.602,1.175 -0.699,1.3 -0.693,1.44L-0.295,5.972C-0.289,6.042 -0.254,6.11 -0.199,6.158C-0.148,6.19 -0.092,6.213 -0.033,6.213C-0.021,6.213 -0.008,6.208 0,6.208" style="fill:rgb(57,42,147);fill-rule:nonzero;"/>
    </g>
    <g transform="matrix(10.5145,0,0,10.5145,2318.6,782.658)">
        <path d="M0,-5.479C-0.115,-5.479 -0.217,-5.404 -0.248,-5.283L-1.428,-0.891C-1.449,-0.821 -1.438,-0.75 -1.4,-0.684C-1.363,-0.625 -1.303,-0.583 -1.232,-0.561C0.377,-0.19 2.027,0 3.686,0C4.09,0 4.494,-0.012 4.891,-0.034C4.965,-0.035 5.033,-0.07 5.078,-0.124C5.126,-0.178 5.148,-0.249 5.143,-0.321L4.746,-4.849C4.734,-4.983 4.619,-5.088 4.482,-5.088L4.471,-5.088C4.213,-5.079 3.949,-5.071 3.688,-5.071C2.471,-5.071 1.248,-5.207 0.063,-5.473C0.041,-5.479 0.023,-5.479 0,-5.479" style="fill:rgb(130,48,137);fill-rule:nonzero;"/>
    </g>
    <g transform="matrix(10.5145,0,0,10.5145,2267.57,671.079)">
        <path d="M0,2.131C0.018,2.202 0.059,2.263 0.119,2.301C1.277,3.039 2.535,3.625 3.848,4.033C3.871,4.043 3.898,4.047 3.924,4.047C3.971,4.047 4.014,4.037 4.053,4.016C4.115,3.981 4.158,3.922 4.18,3.852L5.357,-0.545C5.393,-0.679 5.32,-0.82 5.186,-0.863C4.426,-1.119 3.695,-1.457 3.01,-1.878C2.967,-1.902 2.922,-1.916 2.873,-1.916C2.789,-1.916 2.707,-1.878 2.658,-1.802L0.047,1.928C0.006,1.988 -0.01,2.059 0,2.131" style="fill:rgb(94,45,142);fill-rule:nonzero;"/>
    </g>
    <g transform="matrix(10.5145,0,0,10.5145,2129.22,552.887)">
        <path d="M0,5.493C-0.492,3.386 -0.684,1.222 -0.559,-0.944C-0.551,-1.084 -0.654,-1.208 -0.801,-1.22L-5.996,-1.675L-6.021,-1.675C-6.082,-1.675 -6.143,-1.652 -6.191,-1.614C-6.244,-1.569 -6.277,-1.5 -6.279,-1.431C-6.463,1.396 -6.215,4.222 -5.553,6.962C-5.539,7.032 -5.494,7.093 -5.43,7.128C-5.389,7.155 -5.346,7.168 -5.295,7.168C-5.273,7.168 -5.252,7.163 -5.227,7.155L-0.189,5.807C-0.049,5.768 0.033,5.634 0,5.493" style="fill:rgb(130,48,137);fill-rule:nonzero;"/>
    </g>
    <g transform="matrix(10.5145,0,0,10.5145,2371.09,845.414)">
        <path d="M0,-5.217L-0.012,-5.217C-0.443,-5.19 -0.877,-5.177 -1.307,-5.177C-3.039,-5.177 -4.77,-5.379 -6.447,-5.776C-6.465,-5.78 -6.49,-5.781 -6.51,-5.781C-6.623,-5.781 -6.732,-5.703 -6.76,-5.584L-8.113,-0.549C-8.133,-0.473 -8.121,-0.403 -8.082,-0.342C-8.051,-0.279 -7.99,-0.24 -7.916,-0.221C-5.762,0.302 -3.537,0.564 -1.313,0.564C-0.717,0.564 -0.115,0.545 0.477,0.51C0.545,0.5 0.609,0.469 0.658,0.418C0.701,0.363 0.725,0.293 0.721,0.219L0.266,-4.976C0.252,-5.113 0.137,-5.217 0,-5.217" style="fill:rgb(57,42,147);fill-rule:nonzero;"/>
    </g>
    <g transform="matrix(10.5145,0,0,10.5145,2217.29,745.429)">
        <path d="M0,-0.073C-0.869,-0.715 -1.691,-1.428 -2.451,-2.188C-3.211,-2.95 -3.922,-3.771 -4.57,-4.641C-4.621,-4.712 -4.703,-4.747 -4.781,-4.747C-4.834,-4.747 -4.885,-4.733 -4.936,-4.7L-9.201,-1.71C-9.258,-1.672 -9.297,-1.606 -9.309,-1.538C-9.32,-1.468 -9.301,-1.394 -9.264,-1.339C-8.428,-0.21 -7.502,0.871 -6.504,1.865C-5.51,2.863 -4.434,3.787 -3.305,4.62C-3.258,4.652 -3.203,4.674 -3.146,4.674C-3.137,4.674 -3.119,4.674 -3.104,4.671C-3.035,4.655 -2.973,4.615 -2.932,4.559L0.057,0.288C0.141,0.177 0.115,0.013 0,-0.073" style="fill:rgb(94,45,142);fill-rule:nonzero;"/>
    </g>
    <g transform="matrix(10.5145,0,0,10.5145,2141.04,667.992)">
        <path d="M0,-4.593C-0.033,-4.53 -0.045,-4.456 -0.021,-4.388C0.57,-2.411 1.445,-0.531 2.574,1.194C2.613,1.255 2.672,1.294 2.744,1.307C2.76,1.312 2.775,1.312 2.795,1.312C2.848,1.312 2.9,1.297 2.945,1.264L6.672,-1.347C6.789,-1.427 6.82,-1.584 6.744,-1.704C5.939,-2.95 5.313,-4.302 4.879,-5.719C4.842,-5.833 4.738,-5.905 4.625,-5.905C4.604,-5.905 4.58,-5.902 4.559,-5.895L0.16,-4.718C0.096,-4.698 0.035,-4.657 0,-4.593" style="fill:rgb(94,45,142);fill-rule:nonzero;"/>
    </g>
    <g transform="matrix(10.5145,0,0,10.5145,2066.89,441.442)">
        <path d="M0,8.136L5.197,8.591L5.221,8.591C5.354,8.591 5.463,8.492 5.484,8.359C5.732,6.204 6.293,4.101 7.145,2.116C7.201,1.986 7.143,1.835 7.012,1.775L2.289,-0.428C2.252,-0.445 2.215,-0.455 2.176,-0.455C2.145,-0.455 2.109,-0.446 2.086,-0.436C2.018,-0.414 1.961,-0.359 1.938,-0.296C0.803,2.29 0.072,5.03 -0.236,7.847C-0.25,7.918 -0.225,7.988 -0.18,8.042C-0.139,8.097 -0.072,8.131 0,8.136" style="fill:rgb(130,48,137);fill-rule:nonzero;"/>
    </g>
    <g transform="matrix(10.5145,0,0,10.5145,2161.35,657.592)">
        <path d="M0,2.65C-1.186,0.841 -2.1,-1.128 -2.723,-3.207C-2.76,-3.325 -2.859,-3.397 -2.975,-3.397C-3,-3.397 -3.02,-3.395 -3.041,-3.387L-8.082,-2.039C-8.148,-2.022 -8.209,-1.977 -8.244,-1.914C-8.279,-1.852 -8.287,-1.778 -8.264,-1.711C-7.471,1.004 -6.273,3.575 -4.707,5.927C-4.664,5.988 -4.602,6.029 -4.533,6.039C-4.516,6.043 -4.5,6.047 -4.488,6.047C-4.43,6.047 -4.379,6.029 -4.334,5.996L-0.064,3.007C0.053,2.931 0.08,2.767 0,2.65" style="fill:rgb(94,45,142);fill-rule:nonzero;"/>
    </g>
    <g transform="matrix(10.5145,0,0,10.5145,2446.01,317.474)">
        <path d="M0,16.354L0.201,16.213L14.088,6.491L14.311,6.334L14.15,6.118C13.316,4.99 12.389,3.912 11.391,2.914C10.395,1.917 9.32,0.992 8.193,0.158L7.975,0L7.818,0.221L-1.902,14.108L-2.049,14.313L-1.85,14.464C-1.527,14.72 -1.229,14.988 -0.951,15.261C-0.682,15.535 -0.41,15.838 -0.156,16.161L0,16.354Z" style="fill:rgb(250,126,95);fill-rule:nonzero;"/>
    </g>
    <g transform="matrix(10.5145,0,0,10.5145,2643.88,575.368)">
        <path d="M0,-8.401L-0.063,-8.664L-0.331,-8.593L-16.704,-4.204L-16.944,-4.14L-16.894,-3.896C-16.735,-3.115 -16.667,-2.313 -16.687,-1.506L-16.694,-1.258L-16.45,-1.237L0.44,0.24L0.708,0.263L0.726,-0.006C0.907,-2.832 0.663,-5.658 0,-8.401" style="fill:rgb(250,126,95);fill-rule:nonzero;"/>
    </g>
    <g transform="matrix(10.5145,0,0,10.5145,2458.68,760.97)">
        <path d="M0,-14.51L-0.225,-14.615L-0.345,-14.397C-0.727,-13.694 -1.189,-13.033 -1.72,-12.431L-1.885,-12.248L-1.709,-12.072L10.273,-0.087L10.465,0.105L10.652,-0.09C12.613,-2.145 14.242,-4.464 15.492,-6.99L15.613,-7.231L15.368,-7.344L0,-14.51Z" style="fill:rgb(250,126,95);fill-rule:nonzero;"/>
    </g>
    <g transform="matrix(10.5145,0,0,10.5145,2429.66,439.254)">
        <path d="M0,-16.027L-0.264,-16.09C-2.42,-16.611 -4.648,-16.878 -6.873,-16.878C-7.467,-16.878 -8.064,-16.858 -8.656,-16.82L-8.926,-16.802L-8.902,-16.536L-7.426,0.357L-7.402,0.601L-7.156,0.594C-7.064,0.593 -6.969,0.593 -6.873,0.593C-6.162,0.593 -5.455,0.661 -4.766,0.8L-4.521,0.851L-4.459,0.611L-0.072,-15.765L0,-16.027Z" style="fill:rgb(250,126,95);fill-rule:nonzero;"/>
    </g>
    <g transform="matrix(10.5145,0,0,10.5145,2230.19,472.487)">
        <path d="M0,-17.006L-0.115,-17.251L-0.355,-17.13C-2.879,-15.879 -5.199,-14.253 -7.254,-12.292L-7.451,-12.104L-7.26,-11.914L4.723,0.072L4.898,0.245L5.082,0.08C5.688,-0.448 6.346,-0.914 7.053,-1.295L7.268,-1.415L7.166,-1.639L0,-17.006Z" style="fill:rgb(250,126,95);fill-rule:nonzero;"/>
    </g>
    <g transform="matrix(10.5145,0,0,10.5145,2421.16,522.181)">
        <path d="M0,9.343C-0.742,10.191 -1.68,10.874 -2.719,11.353C-3.762,11.83 -4.91,12.092 -6.068,12.113C-7.227,12.143 -8.391,11.919 -9.475,11.493C-10.555,11.056 -11.547,10.396 -12.371,9.574C-13.191,8.748 -13.854,7.757 -14.291,6.677C-14.717,5.593 -14.943,4.431 -14.912,3.271C-14.891,2.113 -14.625,0.969 -14.15,-0.078C-13.672,-1.115 -12.986,-2.055 -12.143,-2.8C-12.883,-1.954 -13.473,-0.992 -13.854,0.045C-14.24,1.082 -14.422,2.181 -14.396,3.271C-14.357,5.454 -13.451,7.59 -11.908,9.111C-10.385,10.656 -8.25,11.556 -6.068,11.599C-4.982,11.624 -3.877,11.445 -2.844,11.056C-1.805,10.675 -0.84,10.088 0,9.343" style="fill:rgb(250,126,95);fill-rule:nonzero;"/>
    </g>
    <g transform="matrix(10.5145,0,0,10.5145,899.316,1081.78)">
        <path d="M0,2.35C0.746,2.35 1.318,2.067 1.706,1.501C2.09,0.965 2.277,0.257 2.277,-0.607C2.277,-1.473 2.09,-2.183 1.706,-2.736C1.322,-3.297 0.754,-3.578 0,-3.578C-0.793,-3.578 -1.366,-3.306 -1.721,-2.753C-2.099,-2.199 -2.283,-1.479 -2.283,-0.607C-2.283,0.253 -2.099,0.965 -1.721,1.518C-1.356,2.069 -0.789,2.35 0,2.35M0.035,7.103C-0.982,7.103 -1.79,6.842 -2.407,6.337C-3.037,5.814 -3.364,5.163 -3.382,4.395L-2.11,4.395C-2.08,4.832 -1.877,5.205 -1.514,5.511C-1.16,5.821 -0.643,5.978 0.035,5.978C0.766,5.978 1.318,5.774 1.69,5.369C2.067,4.979 2.249,4.464 2.249,3.815L2.249,2.27L2.188,2.27C1.681,3.106 0.883,3.518 -0.218,3.518C-1.312,3.518 -2.144,3.139 -2.725,2.378C-3.3,1.616 -3.603,0.621 -3.617,-0.607C-3.603,-1.917 -3.291,-2.939 -2.693,-3.664C-2.099,-4.389 -1.272,-4.753 -0.218,-4.753C0.883,-4.753 1.681,-4.339 2.188,-3.502L2.249,-3.502L2.425,-4.618L3.564,-4.618L3.564,3.844C3.564,4.797 3.254,5.579 2.636,6.185C2.006,6.796 1.141,7.103 0.035,7.103" style="fill:rgb(57,42,147);fill-rule:nonzero;"/>
    </g>
    <g transform="matrix(10.5145,0,0,10.5145,964.817,1032.28)">
        <path d="M0,8.088L0,0.09L1.14,0.09L1.247,1.442L1.308,1.442C1.479,0.996 1.752,0.639 2.124,0.37C2.493,0.122 2.929,0 3.419,0L4.14,0L4.14,1.267L3.517,1.267C2.042,1.267 1.308,2.247 1.308,4.205L1.308,8.088L0,8.088Z" style="fill:rgb(57,42,147);fill-rule:nonzero;"/>
    </g>
    <g transform="matrix(10.5145,0,0,10.5145,1082.17,1118.59)">
        <path d="M0,-8.119L1.315,-8.119L1.315,-3.031C1.315,-2.114 1.01,-1.384 0.407,-0.84C-0.204,-0.28 -0.991,0 -1.957,0C-2.926,0 -3.709,-0.28 -4.313,-0.84C-4.924,-1.384 -5.223,-2.114 -5.223,-3.031L-5.223,-8.119L-3.91,-8.119L-3.91,-3.253C-3.91,-1.863 -3.258,-1.168 -1.957,-1.168C-0.652,-1.168 0,-1.863 0,-3.253L0,-8.119Z" style="fill:rgb(57,42,147);fill-rule:nonzero;"/>
    </g>
    <g transform="matrix(10.5145,0,0,10.5145,1161.37,1080.3)">
        <path d="M0,2.491C0.785,2.491 1.365,2.21 1.747,1.659C2.101,1.106 2.283,0.394 2.283,-0.466C2.283,-1.338 2.101,-2.058 1.747,-2.612C1.365,-3.165 0.791,-3.437 0,-3.437C-0.748,-3.437 -1.319,-3.156 -1.707,-2.595C-2.091,-2.036 -2.285,-1.322 -2.285,-0.466C-2.285,0.394 -2.091,1.096 -1.707,1.642C-1.319,2.208 -0.748,2.491 0,2.491M-3.568,7.103L-3.568,-4.477L-2.424,-4.477L-2.253,-3.361L-2.185,-3.361C-1.683,-4.198 -0.874,-4.612 0.218,-4.612C1.272,-4.612 2.107,-4.248 2.71,-3.523C3.294,-2.803 3.601,-1.784 3.611,-0.466C3.601,0.767 3.3,1.763 2.726,2.519C2.152,3.28 1.313,3.659 0.218,3.659C-0.874,3.659 -1.683,3.247 -2.185,2.411L-2.253,2.411L-2.253,7.103L-3.568,7.103Z" style="fill:rgb(57,42,147);fill-rule:nonzero;"/>
    </g>
    <g transform="matrix(10.5145,0,0,10.5145,1253.73,1044.08)">
        <path d="M0,5.935C0.787,5.935 1.371,5.664 1.739,5.131C2.107,4.594 2.279,3.873 2.279,2.978C2.279,2.081 2.107,1.357 1.739,0.805C1.371,0.272 0.787,0.007 0,0.007C-0.774,0.007 -1.35,0.272 -1.719,0.805C-2.099,1.357 -2.285,2.081 -2.285,2.978C-2.285,3.873 -2.099,4.594 -1.719,5.131C-1.34,5.664 -0.771,5.935 0,5.935M0,7.103C-1.186,7.103 -2.085,6.716 -2.705,5.949C-3.311,5.189 -3.614,4.2 -3.614,2.978C-3.614,1.758 -3.305,0.761 -2.688,-0.008C-2.067,-0.78 -1.175,-1.168 0,-1.168C1.179,-1.168 2.07,-0.78 2.701,-0.008C3.312,0.761 3.621,1.758 3.621,2.978C3.621,4.2 3.315,5.189 2.712,5.949C2.096,6.716 1.193,7.103 0,7.103" style="fill:rgb(57,42,147);fill-rule:nonzero;"/>
    </g>
    <g transform="matrix(10.5145,0,0,10.5145,1469.3,1082.57)">
        <path d="M0,-1.384L4.316,-1.384C4.316,-2.062 4.138,-2.607 3.784,-3.03C3.425,-3.443 2.903,-3.653 2.213,-3.653C1.508,-3.653 0.959,-3.443 0.591,-3.03C0.211,-2.606 0.012,-2.058 0,-1.384M2.238,3.443C1.099,3.443 0.203,3.056 -0.446,2.289C-1.076,1.529 -1.4,0.54 -1.4,-0.682C-1.4,-1.902 -1.09,-2.899 -0.476,-3.668C0.146,-4.44 1.045,-4.827 2.213,-4.827C3.306,-4.827 4.154,-4.47 4.765,-3.752C5.37,-3.028 5.676,-2.087 5.676,-0.935L5.676,-0.29L-0.015,-0.29C-0.015,0.507 0.179,1.127 0.56,1.574C0.948,2.037 1.513,2.275 2.238,2.275C2.764,2.275 3.208,2.167 3.565,1.946C3.918,1.725 4.149,1.411 4.254,0.995L5.57,0.995C5.465,1.714 5.097,2.304 4.472,2.758C3.832,3.216 3.088,3.443 2.238,3.443" style="fill:rgb(57,42,147);fill-rule:nonzero;"/>
    </g>
    <g transform="matrix(10.5145,0,0,10.5145,1537.17,1033.23)">
        <path d="M0,7.998L0,7.848L2.805,3.98L0.096,0.159L0.096,0L1.504,0L3.621,3.085L3.677,3.085L5.777,0L7.206,0L7.206,0.159L4.479,3.949L7.25,7.848L7.25,7.998L5.867,7.998L3.677,4.836L3.621,4.836L1.398,7.998L0,7.998Z" style="fill:rgb(57,42,147);fill-rule:nonzero;"/>
    </g>
    <g transform="matrix(10.5145,0,0,10.5145,1683.09,1118.59)">
        <path d="M0,-8.119L1.316,-8.119L1.316,-3.031C1.316,-2.114 1.01,-1.384 0.408,-0.84C-0.201,-0.28 -0.984,0 -1.955,0C-2.922,0 -3.711,-0.28 -4.313,-0.84C-4.923,-1.384 -5.223,-2.114 -5.223,-3.031L-5.223,-8.119L-3.912,-8.119L-3.912,-3.253C-3.912,-1.863 -3.258,-1.168 -1.955,-1.168C-0.648,-1.168 0,-1.863 0,-3.253L0,-8.119Z" style="fill:rgb(57,42,147);fill-rule:nonzero;"/>
    </g>
    <g transform="matrix(10.5145,0,0,10.5145,1378.09,1033.23)">
        <path d="M0,8.119L-1.312,8.119L-1.312,3.034C-1.312,2.116 -1.008,1.387 -0.403,0.842C0.201,0.278 0.989,0 1.955,0C2.927,0 3.712,0.278 4.319,0.842C4.925,1.387 5.228,2.116 5.228,3.034L5.228,8.119L3.91,8.119L3.91,3.257C3.91,1.865 3.26,1.17 1.955,1.17C0.654,1.17 0,1.865 0,3.257L0,8.119Z" style="fill:rgb(57,42,147);fill-rule:nonzero;"/>
    </g>
    <g transform="matrix(10.5145,0,0,10.5145,1752.54,1031.8)">
        <path d="M0,8.271C-0.957,8.271 -1.736,8.019 -2.328,7.52C-2.939,7.042 -3.252,6.367 -3.268,5.491L-1.955,5.491C-1.955,6.018 -1.775,6.417 -1.42,6.684C-1.061,6.959 -0.588,7.103 0,7.103C1.225,7.103 1.836,6.719 1.836,5.955C1.836,5.375 1.424,5 0.611,4.819L-0.988,4.518C-1.645,4.382 -2.146,4.124 -2.48,3.743C-2.84,3.354 -3.016,2.866 -3.016,2.282C-3.016,1.609 -2.746,1.058 -2.213,0.639C-1.666,0.211 -0.967,0 -0.107,0C0.795,0 1.537,0.231 2.117,0.703C2.695,1.166 2.984,1.789 2.984,2.576L1.695,2.576C1.682,2.094 1.51,1.727 1.18,1.471C0.838,1.229 0.408,1.108 -0.107,1.108C-0.611,1.108 -1.01,1.201 -1.293,1.405C-1.596,1.612 -1.748,1.906 -1.748,2.282C-1.748,2.897 -1.285,3.274 -0.361,3.415L0.898,3.642C1.682,3.818 2.248,4.082 2.617,4.429C2.984,4.796 3.162,5.304 3.162,5.955C3.162,6.669 2.865,7.233 2.258,7.655C1.658,8.067 0.904,8.271 0,8.271" style="fill:rgb(57,42,147);fill-rule:nonzero;"/>
    </g>
    <g transform="matrix(10.5145,0,0,10.5145,1853.04,1043.74)">
        <path d="M0,6.013C-0.645,5.243 -0.957,4.24 -0.957,3.016C-0.957,1.791 -0.645,0.786 -0.029,0.018C0.582,-0.752 1.492,-1.147 2.666,-1.147C3.768,-1.147 4.617,-0.782 5.227,-0.046C5.844,0.678 6.139,1.617 6.139,2.764L6.139,3.409L0.428,3.409C0.428,4.979 1.223,5.982 2.686,5.982C3.754,5.982 4.508,5.528 4.711,4.693L6.029,4.693C5.918,5.432 5.557,6.029 4.928,6.486C4.303,6.939 3.547,7.16 2.686,7.16C1.541,7.16 0.645,6.782 0,6.013M4.773,2.309C4.773,0.975 4.035,0.034 2.666,0.034C1.236,0.034 0.488,0.975 0.438,2.309L4.773,2.309Z" style="fill:rgb(57,42,147);fill-rule:nonzero;"/>
    </g>
    <g transform="matrix(10.5145,0,0,10.5145,1940.65,1031.68)">
        <path d="M0,8.162L0,0.143L1.148,0.143L1.258,1.401L1.322,1.401C1.807,0.473 2.621,0 3.803,0C5.563,0 6.611,1.12 6.611,2.955L6.611,8.162L5.291,8.162L5.291,3.156C5.291,1.842 4.676,1.181 3.439,1.181C2.105,1.181 1.322,2.122 1.322,3.739L1.322,8.162L0,8.162Z" style="fill:rgb(57,42,147);fill-rule:nonzero;"/>
    </g>
    <g transform="matrix(10.5145,0,0,10.5145,2041.67,1043.74)">
        <path d="M0,6.013C-0.643,5.243 -0.959,4.24 -0.959,3.016C-0.959,1.791 -0.643,0.786 -0.031,0.018C0.58,-0.752 1.492,-1.147 2.668,-1.147C3.766,-1.147 4.613,-0.782 5.227,-0.046C5.838,0.678 6.137,1.617 6.137,2.764L6.137,3.409L0.422,3.409C0.422,4.979 1.223,5.982 2.686,5.982C3.752,5.982 4.506,5.528 4.705,4.693L6.029,4.693C5.92,5.432 5.555,6.029 4.928,6.486C4.303,6.939 3.549,7.16 2.686,7.16C1.539,7.16 0.645,6.782 0,6.013M4.771,2.309C4.771,0.975 4.033,0.034 2.668,0.034C1.238,0.034 0.486,0.975 0.441,2.309L4.771,2.309Z" style="fill:rgb(57,42,147);fill-rule:nonzero;"/>
    </g>
    <g transform="matrix(10.5145,0,0,10.5145,2129.28,1032.19)">
        <path d="M0,8.113L0,0.094L1.146,0.094L1.258,1.448L1.32,1.448C1.648,0.549 2.451,0 3.439,0L4.162,0L4.162,1.269L3.535,1.269C2.059,1.269 1.32,2.264 1.32,4.223L1.32,8.113L0,8.113Z" style="fill:rgb(57,42,147);fill-rule:nonzero;"/>
    </g>
    <g transform="matrix(10.5145,0,0,10.5145,2196.47,1039.79)">
        <path d="M0,10.36C-0.631,9.842 -0.957,9.199 -0.973,8.414L0.295,8.414C0.359,9.292 1.08,10 2.447,10C3.906,10 4.676,9.103 4.676,7.83L4.676,6.277L4.613,6.277C4.107,7.109 3.311,7.536 2.195,7.536C1.111,7.536 0.266,7.157 -0.316,6.388C-0.895,5.619 -1.195,4.631 -1.209,3.391C-1.195,0.801 0.078,-0.769 2.195,-0.769C3.311,-0.769 4.107,-0.347 4.613,0.485L4.676,0.485L4.852,-0.628L5.994,-0.628L5.994,7.862C5.994,8.822 5.682,9.591 5.055,10.204C4.424,10.81 3.566,11.129 2.447,11.129C1.441,11.129 0.627,10.877 0,10.36M4.709,3.391C4.709,1.678 3.922,0.409 2.418,0.409C0.846,0.409 0.123,1.633 0.123,3.391C0.123,5.133 0.846,6.357 2.418,6.357C3.922,6.357 4.709,5.102 4.709,3.391" style="fill:rgb(57,42,147);fill-rule:nonzero;"/>
    </g>
    <g transform="matrix(10.5145,0,0,10.5145,2285.72,1093.38)">
        <path d="M0,-6.854L0,-7.01L1.193,-9.148L2.996,-9.148L2.996,-8.992L1.18,-6.854L0,-6.854ZM0.174,-5.725L1.49,-5.725L1.49,2.294L0.174,2.294L0.174,-5.725Z" style="fill:rgb(57,42,147);fill-rule:nonzero;"/>
    </g>
    <g transform="matrix(10.5145,0,0,10.5145,2332.09,1043.42)">
        <path d="M0,6.011C-0.58,5.239 -0.879,4.238 -0.879,3.026C-0.879,1.787 -0.58,0.784 0,0.014C0.582,-0.756 1.43,-1.145 2.529,-1.145C3.643,-1.145 4.445,-0.724 4.943,0.109L5.008,0.109L5.18,-1.008L6.328,-1.008L6.328,7.015L5.18,7.015L5.07,5.9L5.008,5.9C4.586,6.671 3.691,7.156 2.543,7.156C1.445,7.156 0.598,6.78 0,6.011M5.039,3.011C5.039,1.299 4.254,0.03 2.75,0.03C1.176,0.03 0.455,1.253 0.455,3.011C0.455,4.785 1.176,5.979 2.75,5.979C4.27,5.979 5.039,4.754 5.039,3.011" style="fill:rgb(57,42,147);fill-rule:nonzero;"/>
    </g>
</svg>
