<svg xmlns="http://www.w3.org/2000/svg" viewBox="0 0 1290.28 478.83"><g id="Capa_2" data-name="Capa 2"><g id="Capa_1-2" data-name="Capa 1"><path d="M476.8 111.59V42.67h45.93v11.15h-33.51v17.37h29.07V83h-29.07v17.29h33.51v11.18zm58.78 0V64.77A52.42 52.42 0 01559.26 59a23.94 23.94 0 0116.91 5.62 20.52 20.52 0 016.2 15.93v31H570V79.49a14.39 14.39 0 00-.38-3.46 8.76 8.76 0 00-1.52-2.88 6.79 6.79 0 00-3.72-2.28 23.86 23.86 0 00-6.63-.75 55.11 55.11 0 00-9.59.9v40.57zm59.58-25.27a32.56 32.56 0 015.53-19.88Q606.22 59 618.24 59a20.92 20.92 0 0117.29 7.23A27.67 27.67 0 01641.29 84a53.83 53.83 0 01-.2 6.4h-33.51a11.05 11.05 0 004 9 16.7 16.7 0 009.11 2.24 41.05 41.05 0 0017.6-4v10a40 40 0 01-19.48 4.67 35.81 35.81 0 01-6.45-.57 21.11 21.11 0 01-6.28-2.31 19.06 19.06 0 01-5.76-4.52 21.24 21.24 0 01-3.58-7.58 37.21 37.21 0 01-1.58-11.01zm12.42-4.47h20.89a18 18 0 00-3.17-9 8.67 8.67 0 00-7.3-3.62 9.1 9.1 0 00-7.26 2.88 16.57 16.57 0 00-3.16 9.74zm45.78 29.74V64.53c.86-.4 2-.89 3.49-1.44s4.46-1.32 9-2.36a64.44 64.44 0 0113.34-1.61v10.66a49.22 49.22 0 00-13.23 1.7v40.11zm33.42-25.96a36.29 36.29 0 011.76-11.93 22.5 22.5 0 014.21-7.7 19.17 19.17 0 015.76-4.35 19.68 19.68 0 015.76-2.08 31.32 31.32 0 014.93-.4q10.89 0 16 4.95a16.19 16.19 0 015.13 12v36.73a25.34 25.34 0 01-.46 4.76 19.15 19.15 0 01-1.93 4.93 15.07 15.07 0 01-3.89 4.66 21 21 0 01-6.83 3.26 34.86 34.86 0 01-10.2 1.32 51.1 51.1 0 01-14.9-2V118.5a42 42 0 0013.49 2.07 31.18 31.18 0 007.08-.66 5.76 5.76 0 003.69-2 7.08 7.08 0 001.24-2.37 10.28 10.28 0 00.26-2.65V110a43 43 0 01-7.84.87 22.33 22.33 0 01-17.28-6.54c-3.99-4.33-5.98-10.55-5.98-18.7zm12.42.23c0 5.76.92 9.68 2.88 11.75a10.72 10.72 0 008.47 3.08 38.92 38.92 0 007.23-.69V76c0-3.83-2.88-5.76-8.64-5.76a8.63 8.63 0 00-7.46 3.57 21.37 21.37 0 00-2.48 12zM744.64 60H757v51.64h-12.36zm9.51-6.71l9.73-12.16h-10.11l-6.4 12.13zm15.9 41.41a17.6 17.6 0 01.32-3.23 15.74 15.74 0 011.63-4.12 14.72 14.72 0 013.41-4.35 19.07 19.07 0 016.6-3.19 35.22 35.22 0 0110.31-1.33 65.72 65.72 0 019.08.69q0-9.86-10.92-9.85a40.42 40.42 0 00-15.19 2.62v-10.2a45.44 45.44 0 0115.88-2.62 23.41 23.41 0 0116.91 5.62A21.64 21.64 0 01813.84 81v14a16.35 16.35 0 01-5.33 12.27c-3.54 3.4-9 5.13-16.36 5.13s-13.25-1.73-16.86-5.16a16.73 16.73 0 01-5.24-12.54zm12.45-1.58q0 8.3 9.71 8.29c6.16 0 9.27-2.62 9.27-7.83v-6.51a63.18 63.18 0 00-7.4-.67q-11.55 0-11.58 6.72zM858.65 60h13.22l13 39.19L897.78 60h13.34l-19.77 51.66h-12.94zm63.93-7.11V41.51h12.74v11.38zm.2 58.7V60h12.45v51.64zM946.84 60h13.23l13 39.22L986 60h13.34l-19.77 51.66h-12.96zm58.58 34.7a17.56 17.56 0 01.29-3.23 15.82 15.82 0 011.61-4.12 15.22 15.22 0 013.51-4.35 19.57 19.57 0 016.63-3.19 35.29 35.29 0 0110.32-1.33 65.58 65.58 0 019.07.69q0-9.86-10.95-9.85a40.76 40.76 0 00-15.18 2.62v-10.2a45.79 45.79 0 0115.9-2.62 23.44 23.44 0 0116.89 5.62 21.55 21.55 0 015.76 16.3V95a16.47 16.47 0 01-5.33 12.27c-3.54 3.4-9 5.13-16.39 5.13s-13.23-1.73-16.83-5.16a16.64 16.64 0 01-5.3-12.54zm12.42-1.58q0 8.3 9.73 8.29c6.2 0 9.28-2.62 9.28-7.83v-6.51a61.1 61.1 0 00-7.4-.67c-7.67 0-11.59 2.37-11.61 6.72zM201.35 223.67C203.66 43.08 120 .69 0 0c2.29 77.46 19.87 234.45 201.35 223.67z" fill="#01a0c6"/><path d="M202.1 258.29C100.7 296.91 43.66 368.56 48.62 478.83 160.15 438.88 202.1 368.56 202.1 258.29z" fill="#f0047f"/><path d="M235.84 213.86c77.4-21.74 146-82.22 141.48-180.3-76.5 10.13-140.89 44.81-141.48 180.3z" fill="#80bf1f"/><path d="M235.84 412V246.62a185.68 185.68 0 0183.84-20.17q38.26 0 59.79 19.91T401 302.23V412h-44V298.48a46 46 0 00-1.35-12.25 30.36 30.36 0 00-5.31-10.23 24.34 24.34 0 00-13.14-8 84.61 84.61 0 00-23.39-2.68 190.66 190.66 0 00-34 3.23V412zm190.23-59.7a60.89 60.89 0 011.1-11.35 54.74 54.74 0 015.76-14.58 50.17 50.17 0 0112.5-15.37 67.62 67.62 0 0123.37-11.35 125.77 125.77 0 0136.5-4.72 220.63 220.63 0 0132.07 2.5q0-34.86-38.66-34.86a141.19 141.19 0 00-53.71 9.29v-36.13a161.57 161.57 0 0156-9.28q39.12 0 59.81 19.91T581.6 304v49.36a58 58 0 01-18.84 43.22q-18.85 18.15-57.95 18.15-40.33 0-59.58-18.24a59 59 0 01-19.16-44.19zm44-5.56q0 29.36 34.4 29.33h.34q32.82 0 32.82-27.72V325.3a219.18 219.18 0 00-26.22-2.3q-41.2 0-41.34 23.74zm138.61 6.48V159.06h44v70.27a168 168 0 0130-2.88q40.74 0 62.67 23.71t21.9 68.34a133.65 133.65 0 01-6.43 43.22 81.64 81.64 0 01-15.12 28.38 69.91 69.91 0 01-20.92 15.76 75.3 75.3 0 01-21.18 7.52 111.46 111.46 0 01-18.06 1.44q-39.16 0-58-18.06a58.23 58.23 0 01-18.86-43.54zm44 4.12q0 19.77 32.88 19.74 20.91 0 29.33-14.41T723.3 316q0-30.86-10.83-43.22t-31.38-12.27a118.06 118.06 0 00-28.41 3zm131.43-5.04a64.44 64.44 0 011.07-11.3 55.42 55.42 0 015.76-14.58A50.35 50.35 0 01803.45 311a67.57 67.57 0 0123.36-11.35 126 126 0 0136.48-4.72 221.15 221.15 0 0132.1 2.5q0-34.86-38.7-34.86a141.22 141.22 0 00-53.69 9.29v-36.13a161.92 161.92 0 0156-9.28q39.12 0 59.81 19.91T939.56 304v49.36a58.05 58.05 0 01-18.85 43.22q-18.84 18.15-57.94 18.15-40.34 0-59.58-18.24a59 59 0 01-19.08-44.19zm44-5.56q0 29.36 34.43 29.33h.35q32.79 0 32.82-27.72V325.3a219.55 219.55 0 00-26.25-2.3q-41.26 0-41.46 23.74zM967.52 412V159.75h44V412zm74.19-207.56V164.1h45.07v40.34zm.72 207.44V229.33h44V412zm65.78-59.58a61.71 61.71 0 011.07-11.35 54.74 54.74 0 015.76-14.58 50.25 50.25 0 0112.48-15.37 67.84 67.84 0 0123.36-11.35 125.93 125.93 0 0136.48-4.72 222.67 222.67 0 0132.1 2.5q0-34.86-38.7-34.86a141.19 141.19 0 00-53.68 9.31v-36.15a161.6 161.6 0 0156.13-9.28q39.07 0 59.81 19.91t20.69 57.64v49.36a58 58 0 01-18.81 43.22q-18.84 18.15-57.94 18.15-40.35 0-59.62-18.24a58.94 58.94 0 01-19.13-44.19zm44-5.56q0 29.36 34.4 29.33h.38q32.79 0 32.78-27.72V325.3a218.69 218.69 0 00-26.19-2.33q-41.19.03-41.4 23.77zm117.09-160.66a21.5 21.5 0 0110.34 2.88 19.33 19.33 0 017.87 7.78 21.27 21.27 0 010 21 19.52 19.52 0 01-7.78 7.77 21.15 21.15 0 01-20.92 0 19.66 19.66 0 01-7.81-7.77 21.41 21.41 0 01-2.88-10.46 21.13 21.13 0 012.88-10.55 19.33 19.33 0 017.87-7.78 21.56 21.56 0 0110.43-2.87zm0 3.49a18.07 18.07 0 00-8.65 2.27 16.34 16.34 0 00-6.57 6.51 17.32 17.32 0 000 17.49 16.49 16.49 0 006.52 6.52 17.7 17.7 0 0017.46 0 16.33 16.33 0 006.48-6.52 17.49 17.49 0 002.33-8.64 17.81 17.81 0 00-2.36-8.64 16.42 16.42 0 00-6.57-6.52 18 18 0 00-8.64-2.47zm-9.22 29.18v-22.61h7.75a18.37 18.37 0 015.76.63 5.55 5.55 0 012.88 2.16 6.08 6.08 0 01-.72 7.66 7 7 0 01-4.7 2 6.55 6.55 0 011.93 1.21 26.7 26.7 0 013.49 4.5l2.88 4.4h-4.46l-2-3.54a18.18 18.18 0 00-3.8-5.27 4.85 4.85 0 00-2.89-.78h-2.2v9.59zm3.63-12.73h4.43a7.18 7.18 0 004.35-1 3.07 3.07 0 001.16-2.51 3.18 3.18 0 00-.55-1.79 3.28 3.28 0 00-1.56-1.18 11.29 11.29 0 00-3.66-.4h-4.17z" fill="#0f298f"/></g></g></svg>