<svg width="140" height="54" viewBox="0 0 140 54" fill="none" xmlns="http://www.w3.org/2000/svg">
<path fill-rule="evenodd" clip-rule="evenodd" d="M0 26.9855H3.64859V0.5H0V26.9855ZM84.8298 33.9339C81.7991 33.9339 80.2396 35.6783 80.2396 38.7019V48.5576C80.2396 51.5812 81.7991 53.3256 84.8298 53.3256C87.8605 53.3256 89.4199 51.5812 89.4199 48.5576V46.0574H86.5069V48.7611C86.5069 50.1276 85.889 50.5927 84.918 50.5927C83.947 50.5927 83.3291 50.0985 83.3291 48.7611V38.5275C83.3291 37.161 83.947 36.6668 84.918 36.6668C85.889 36.6668 86.5069 37.1901 86.5069 38.5275V40.5626H89.4199V38.731C89.4199 35.6783 87.8605 33.9339 84.8298 33.9339ZM32.1901 53.4709V34.1083H35.3382V50.6799H40.5171V53.4709H32.1901ZM68.2934 42.8011C69.4704 42.8011 70.1765 42.3069 70.1765 40.766H70.1471V38.8763C70.1471 37.4808 69.6763 36.8702 68.5582 36.8702H67.0576V42.8011H68.2934ZM71.2652 44.0222C72.8541 44.6618 73.3544 46.1155 73.3544 48.1215V51.1451C73.3544 52.0754 73.3838 52.7732 73.7074 53.5H70.5002L70.497 53.491C70.3222 53.0018 70.206 52.6764 70.206 51.116V48.0634C70.206 46.2608 69.5881 45.5922 68.1463 45.5922H67.0576V53.4709H63.9386V34.1083H68.6759C71.9126 34.1083 73.3249 35.562 73.3249 38.5565V40.0683C73.3249 42.0453 72.6776 43.3245 71.2652 43.9641V44.0222ZM78.5624 53.4709H75.414V34.1083H78.5624V53.4709ZM140 36.8703V34.1083H131.408V53.4709H140V50.6799H134.557V45.0107H138.882V42.2488H134.557V36.8703H140ZM94.2749 53.4709H91.1265V34.1083H94.2749V53.4709ZM30.4834 53.4709H21.921V34.1083H30.4834V36.8703H25.0694V42.2488H29.3653V45.0107H25.0694V50.6799H30.4834V53.4709ZM42.2236 53.4709H50.786V50.6799H45.372V45.0107H49.6679V42.2488H45.372V36.8703H50.786V34.1083H42.2236V53.4709ZM10.9752 27.0145H11.0046V0.5H14.6238V27.0145V51.3195V53.4709H10.9752V27.0145ZM46.2842 24.7178C47.9613 26.2296 50.1976 26.9855 52.9046 26.9855C55.641 26.9855 57.8478 26.2296 59.525 24.7178C61.2022 23.206 62.0555 21.0546 62.0555 18.2636V0.5H56.7886V18.2636C56.7886 19.9207 56.4649 21.1127 55.7881 21.8396C55.1114 22.5664 54.1404 22.9152 52.8752 22.9152C51.6393 22.9152 50.6684 22.5373 49.9916 21.7814C49.3148 21.0255 48.9618 19.8626 48.9618 18.2636V0.5H43.6948V18.2636C43.7537 21.0546 44.607 23.1769 46.2842 24.7178ZM55.7881 36.8703H52.4926V34.1083H62.232V36.8703H58.9365V53.4709H55.7881V36.8703ZM39.6637 19.8626C39.6637 17.7112 39.0164 15.9959 37.7512 14.7167C36.4859 13.4375 34.5733 12.3908 32.0429 11.5768C30.454 10.9081 29.3359 10.2976 28.6885 9.7452C28.0412 9.19281 27.7175 8.49506 27.7175 7.65195C27.7175 6.72161 28.0118 5.96572 28.6003 5.35518C29.1887 4.74465 29.9832 4.45392 31.013 4.45392C32.1311 4.45392 32.9844 4.83187 33.6024 5.55869C34.2203 6.28552 34.5145 7.24493 34.5145 8.43692H39.5755L39.6049 8.32063C39.6637 6.08201 38.8987 4.19227 37.3098 2.70954C35.7209 1.22682 33.6612 0.5 31.1307 0.5C28.6297 0.5 26.57 1.16868 24.9517 2.47696C23.3333 3.81432 22.5389 5.52962 22.5389 7.62287C22.5389 9.7452 23.2451 11.4314 24.628 12.5943C26.0109 13.7863 28.1 14.833 30.8659 15.7633C32.2194 16.3157 33.161 16.8971 33.6906 17.4786C34.2203 18.0601 34.4851 18.845 34.4851 19.8626C34.4851 20.822 34.2203 21.607 33.6906 22.1594C33.161 22.7117 32.3371 23.0025 31.2484 23.0025C29.8361 23.0025 28.8062 22.6536 28.1 21.9558C27.3939 21.2581 27.0702 20.1242 27.0702 18.5252H21.9504L21.921 18.6415C21.8621 21.3162 22.7743 23.3804 24.628 24.805C26.4817 26.2296 28.6885 26.9564 31.219 26.9564C33.7789 26.9564 35.8092 26.3168 37.3392 25.0666C38.8693 23.8165 39.6637 22.0721 39.6637 19.8626ZM100.895 50.709C101.896 50.709 102.484 50.2147 102.484 48.8192V38.76C102.484 37.3645 101.896 36.8702 100.895 36.8702H99.1299V50.709H100.895ZM95.9815 34.1083H100.954C104.103 34.1083 105.633 35.7946 105.633 38.8763V48.6739C105.633 51.7847 104.103 53.4709 100.954 53.4709H95.9815V34.1083ZM126.553 48.8192C126.553 50.2147 125.965 50.709 124.964 50.709H123.199V36.8702H124.964C125.965 36.8702 126.553 37.3645 126.553 38.76V48.8192ZM125.023 34.1083H120.05V53.4709H125.023C128.171 53.4709 129.702 51.7847 129.702 48.6739V38.8763C129.702 35.7946 128.171 34.1083 125.023 34.1083ZM112.665 37.5099L111.164 47.3074H114.224L112.724 37.5099H112.665ZM107.339 53.4709L110.546 34.1083H115.107L118.314 53.4709H115.137L114.607 49.9531H110.752L110.223 53.4709H107.339Z" fill="white"/>
</svg>
