<?xml version="1.0" encoding="UTF-8"?>
<svg id="b" data-name="Edit" xmlns="http://www.w3.org/2000/svg" width="130" height="42.15" viewBox="0 0 130 42.15">
  <defs>
    <style>
      .d {
        fill: #636464;
      }

      .d, .e, .f {
        stroke-width: 0px;
      }

      .e {
        fill: none;
      }

      .f {
        fill: #ed7c23;
      }
    </style>
  </defs>
  <g>
    <path class="e" d="m87.65,3.53c-3.97,0-7.36,2.5-8.72,6,1.53-3.04,4.86-5.15,8.73-5.15s7.09,2.04,8.66,5c-1.4-3.43-4.75-5.86-8.67-5.86Z"/>
    <path class="e" d="m77.06,12.72c0,2.88,1.3,5.48,3.37,7.31-1.78-1.83-2.88-4.33-2.88-7.09,0-5.6,4.52-10.15,10.1-10.15,3.69,0,6.91,1.99,8.67,4.96-.46-.98-1.06-1.88-1.77-2.67-1.85-1.49-4.25-2.39-6.87-2.39-5.86,0-10.62,4.5-10.62,10.03Z"/>
    <ellipse class="e" cx="87.72" cy="13.31" rx="8.05" ry="7.8"/>
    <path class="e" d="m79.17,4.32s.07-.1.1-.15c-.78.8-1.45,1.73-1.97,2.74.5-.95,1.14-1.82,1.87-2.59Z"/>
    <path class="e" d="m77.19,7.13c-.12.24-.23.47-.34.72.1-.24.22-.48.34-.72Z"/>
    <path class="e" d="m90.54,23.13c-1.11.38-2.29.6-3.52.6-2.64,0-5.06-.96-6.97-2.55,1.97,1.68,4.5,2.7,7.27,2.7,2.43,0,4.69-.79,6.54-2.13-1.01.62-2.12,1.09-3.31,1.38Z"/>
    <path class="e" d="m95.37,4.81c.91.79,1.68,1.71,2.28,2.75-.32-.73-.72-1.41-1.18-2.05l-1.1-.69Z"/>
    <path class="e" d="m87.68,1.95c.89,0,1.76.11,2.59.29-1.02-.35-2.11-.55-3.25-.55-3.65,0-6.86,1.97-8.69,4.92,2.05-2.82,5.47-4.67,9.36-4.67Z"/>
    <path class="e" d="m98.31,12.72c0-1.16-.22-2.27-.6-3.31.24.94.38,1.91.38,2.93,0,2.34-.69,4.51-1.86,6.31,1.3-1.66,2.08-3.71,2.08-5.94Z"/>
    <path class="e" d="m88.75,22.1c-.34.04-.68.06-1.03.06,0,0-.02,0-.03,0-.01,0-.02,0-.03,0-1.97,0-3.8-.55-5.33-1.48,1.51,1.05,3.34,1.67,5.32,1.67s3.75-.6,5.25-1.62c-1.22.73-2.63,1.21-4.15,1.37Z"/>
    <path class="f" d="m87.32,0c-6.67,0-12.08,5.51-12.08,12.31s5.41,12.31,12.08,12.31,12.08-5.51,12.08-12.31S93.99,0,87.32,0Zm7.23,5.08c.71.79,1.31,1.69,1.77,2.67-1.76-2.97-4.98-4.96-8.67-4.96-5.58,0-10.1,4.54-10.1,10.15,0,2.76,1.1,5.26,2.88,7.09-2.07-1.83-3.37-4.43-3.37-7.31,0-5.53,4.77-10.03,10.62-10.03,2.62,0,5.02.9,6.87,2.39Zm-14.88,8.23c0-4.3,3.61-7.8,8.05-7.8s8.05,3.5,8.05,7.8-3.61,7.8-8.05,7.8-8.05-3.5-8.05-7.8Zm7.99-8.92c-3.87,0-7.2,2.11-8.73,5.15,1.36-3.51,4.75-6,8.72-6s7.27,2.43,8.67,5.86c-1.56-2.96-4.85-5-8.66-5Zm-.01,17.96c-1.97,0-3.8-.62-5.32-1.67,1.53.94,3.36,1.48,5.33,1.48.01,0,.02,0,.03,0s.02,0,.03,0c.35,0,.69-.02,1.03-.06,1.52-.16,2.93-.64,4.15-1.37-1.5,1.02-3.3,1.62-5.25,1.62Zm10.05-12.93c.38,1.04.6,2.15.6,3.31,0,2.22-.78,4.27-2.08,5.94,1.17-1.81,1.86-3.98,1.86-6.31,0-1.01-.14-1.99-.38-2.93Zm-10.68-7.72c1.14,0,2.23.2,3.25.55-.83-.18-1.7-.29-2.59-.29-3.88,0-7.31,1.85-9.36,4.67,1.84-2.96,5.04-4.92,8.69-4.92Zm8.35,3.12l1.1.69c.46.64.85,1.32,1.18,2.05-.6-1.03-1.37-1.95-2.28-2.75Zm-16.11-.64s-.07.1-.1.15c-.74.76-1.37,1.63-1.87,2.59.52-1.01,1.19-1.93,1.97-2.74Zm-2.41,3.67c.1-.25.22-.48.34-.72-.12.24-.23.47-.34.72Zm3.2,13.35c1.9,1.59,4.33,2.55,6.97,2.55,1.23,0,2.42-.22,3.52-.6,1.19-.29,2.31-.76,3.31-1.38-1.85,1.34-4.1,2.13-6.54,2.13-2.76,0-5.3-1.02-7.27-2.7Z"/>
    <g>
      <path class="d" d="m0,20.86l1.11-1.8c1.28.98,3.17,1.63,4.83,1.67,2.05,0,4.49-.94,4.4-3.29-.04-1.84-1.71-2.39-3.12-2.95-.56-.21-1.15-.47-1.75-.64-1.16-.43-2.35-.86-3.34-1.63-1.03-.73-1.8-1.8-1.8-3.55C.34,5.08,3.55,3.12,6.88,3.12c1.93,0,3.72.64,5.43,1.58l-1.16,1.84c-1.41-.81-2.74-1.2-4.1-1.24-1.8,0-3.76.94-3.81,2.95,0,1.07.64,1.67,1.63,2.1.94.43,2.22.94,3.42,1.41,1.16.47,2.35.9,3.34,1.67,1.03.81,1.8,1.93,1.8,3.63-.04,4.02-3.85,5.9-7.44,5.9-2.18,0-4.36-.86-5.99-2.1Z"/>
      <path class="d" d="m20.9,3.24v13.08c0,2.86,2.09,4.49,4.83,4.45,1.67-.04,3.21-.81,4.23-1.5V3.59h3.12v16.12c-2.61,1.88-5.64,3.08-9.32,3.08-2.82,0-6.07-1.67-6.07-5.39V4.31l3.21-1.07Z"/>
      <path class="d" d="m49.73,22.44v-12.74c0-2.86-1.88-4.45-4.62-4.4-1.67.04-3.25.77-4.23,1.45v15.69h-3.12V6.37c1.58-1.16,2.99-2.05,4.96-2.57,1.54-.43,3.63-.86,5.86-.34,2.27.51,4.28,2.14,4.28,4.66v14.32h-3.12Z"/>
      <path class="d" d="m56.88,13.29c0-3.51,1.45-6.97,4.06-8.76,2.61-1.8,6.58-1.67,9.53.17l-.9,1.67c-1.28-.6-3.04-1.11-4.49-1.03-3.38.17-5.04,4.41-5.04,7.95s1.8,7.4,5.34,7.44c2.01.04,3.46-.68,5.17-1.5l.81,1.62c-1.84,1.2-4.15,1.97-6.88,1.97-4.79-.04-7.61-4.83-7.61-9.53Z"/>
      <path class="d" d="m109.33,5.6c-2.05,0-3.46.77-4.58,1.71v15.14h-3.12V6.88c1.15-1.28,2.69-2.31,4.45-2.91,1.88-.68,3.68-1.11,6.28-.64-.38.77-.9,1.75-1.24,2.52-.6-.13-1.33-.26-1.75-.26h-.04Z"/>
      <path class="d" d="m126.79,22.32c-2.69.77-6.2.81-8.42-1.07-2.05-1.75-3.29-4.7-3.29-7.87.04-4.92,2.05-10.01,7.53-10.01s7.14,3.59,7.23,9.36h-11.46c-.34,4.87,2.14,8.17,5.64,8.04,2.14-.04,3.68-.77,5.26-1.54l.73,1.5c-.98.64-1.97,1.2-3.21,1.58Zm-.08-11.37c0-2.74-1.2-5.64-3.98-5.64-2.99,0-4.06,2.91-4.28,5.6h8.21l.04.04Z"/>
    </g>
  </g>
  <g>
    <path class="d" d="m4.95,38.08c-1.11.32-2.57.34-3.48-.44-.85-.73-1.36-1.95-1.36-3.26.02-2.03.85-4.14,3.11-4.14s2.95,1.49,2.99,3.87H1.46c-.14,2.02.88,3.38,2.34,3.33.88-.02,1.52-.32,2.18-.64l.3.62c-.41.27-.81.5-1.33.65Zm-.04-4.71c0-1.13-.5-2.34-1.65-2.34-1.24,0-1.68,1.2-1.77,2.32h3.4l.02.02Z"/>
    <path class="d" d="m12.92,38.14v-5.27c0-1.19-.78-1.84-1.91-1.82-.69.02-1.34.32-1.75.6v6.49h-1.29v-6.65c.65-.48,1.24-.85,2.05-1.06.64-.18,1.5-.35,2.42-.14.94.21,1.77.88,1.77,1.93v5.93h-1.29Z"/>
    <path class="d" d="m20.74,38.08c-1.11.32-2.57.34-3.48-.44-.85-.73-1.36-1.95-1.36-3.26.02-2.03.85-4.14,3.11-4.14s2.95,1.49,2.99,3.87h-4.74c-.14,2.02.88,3.38,2.34,3.33.88-.02,1.52-.32,2.18-.64l.3.62c-.41.27-.81.5-1.33.65Zm-.04-4.71c0-1.13-.5-2.34-1.65-2.34-1.24,0-1.68,1.2-1.77,2.32h3.4l.02.02Z"/>
    <path class="d" d="m27.11,31.16c-.85,0-1.43.32-1.89.71v6.26h-1.29v-6.44c.48-.53,1.11-.95,1.84-1.2.78-.28,1.52-.46,2.6-.27-.16.32-.37.73-.51,1.04-.25-.05-.55-.11-.73-.11h-.02Z"/>
    <path class="d" d="m36.08,37.57c0,.94-.05,2.11-.44,2.81-.65,1.24-2.49,1.73-3.8,1.77l-.19-.81c.99-.14,2.41-.28,2.94-1.29.27-.5.28-1.47.28-2.03,0-.19.02-.37,0-.55-.8.53-1.52.83-2.51.81-2.12,0-3.06-2.12-3.06-4,0-1.75.99-4.07,3.04-4.07,1.2,0,2.65.44,3.77,1.42l-.02,5.94Zm-1.27-5.79c-.65-.41-1.22-.69-2-.69-1.63,0-2.11,1.93-2.11,3.22s.48,3.1,2.02,3.1c.8,0,1.42-.39,2.09-.8v-4.83Z"/>
    <path class="d" d="m38.19,27.68c0-.46.37-.83.85-.83s.83.37.83.85-.37.83-.85.83-.83-.37-.83-.83v-.02Zm.21,2.94l1.27-.43v7.94h-1.27v-7.52Z"/>
    <path class="d" d="m44.15,38.28c-1.4-.04-2.55-1.15-2.51-2.57.02-1.5,1.19-2.42,2.67-2.41h2.11v-.76c0-.88-.81-1.49-1.68-1.49-.78,0-1.34.19-2.03.55l-.32-.74c.92-.5,1.63-.67,2.69-.67,1.29,0,2.57.85,2.57,2.28v4.48c-.74.74-1.95,1.34-3.48,1.33Zm2.23-4.16c-.41,0-1.06,0-1.7.02-.99,0-1.73.57-1.73,1.54,0,.88.74,1.73,1.77,1.73.74.02,1.43-.39,1.66-.64v-2.65Z"/>
    <path class="d" d="m49.18,37.48l.46-.74c.53.41,1.31.67,2,.69.85,0,1.86-.39,1.82-1.36-.02-.76-.71-.99-1.29-1.22-.23-.09-.48-.19-.73-.26-.48-.18-.97-.35-1.38-.67-.43-.3-.74-.74-.74-1.47,0-1.49,1.33-2.3,2.71-2.3.8,0,1.54.27,2.25.65l-.48.76c-.58-.34-1.13-.5-1.7-.51-.74,0-1.56.39-1.57,1.22,0,.44.27.69.67.87.39.18.92.39,1.42.58.48.19.97.37,1.38.69.42.34.74.8.74,1.5-.02,1.66-1.59,2.44-3.08,2.44-.9,0-1.8-.35-2.48-.87Z"/>
  </g>
</svg>