<svg xmlns="http://www.w3.org/2000/svg" viewBox="0 0 102.9 54.26"><defs><linearGradient id="a" x1="17.71" y1="25.84" x2="-1.82" y2="6.31" gradientUnits="userSpaceOnUse"><stop offset="0" stop-color="#00a750"/><stop offset=".09" stop-color="#23af4c"/><stop offset=".19" stop-color="#43b648"/><stop offset=".3" stop-color="#5ebb45"/><stop offset=".42" stop-color="#72c042"/><stop offset=".56" stop-color="#80c340"/><stop offset=".72" stop-color="#88c43f"/><stop offset="1" stop-color="#8bc53f"/></linearGradient></defs><g data-name="Layer 2"><g data-name="Layer 1"><path d="M25.89 53a.77.77 0 01-.57-.23.81.81 0 01-.23-.57v-6a.81.81 0 01.23-.57.78.78 0 01.57-.24h5a.82.82 0 01.81.81.74.74 0 01-.24.56.78.78 0 01-.57.24h-4.2v1.41h3.22a.77.77 0 01.57.23.8.8 0 01-.57 1.36h-3.22v1.4h4.22a.81.81 0 01.57.23.8.8 0 010 1.14.77.77 0 01-.57.23zm13.39-7.58a.9.9 0 01.49 0 .78.78 0 01.4.26l3.6 4.32v-3.8a.78.78 0 01.24-.57.74.74 0 01.56-.24.78.78 0 01.58.24.81.81 0 01.23.57v6a.77.77 0 01-.15.46.76.76 0 01-.38.3.86.86 0 01-.28 0 .73.73 0 01-.61-.29l-3.6-4.31v3.8a.78.78 0 01-.24.57.81.81 0 01-1.13 0 .78.78 0 01-.24-.57v-6a.8.8 0 01.15-.47.84.84 0 01.38-.27zM53.75 53a.79.79 0 01-.8-.8v-6a.77.77 0 01.23-.57.78.78 0 01.57-.24h5a.78.78 0 01.57.24.81.81 0 01.23.57.77.77 0 01-.23.56.78.78 0 01-.57.24h-4.2v1.41h3.21a.77.77 0 01.57.23.8.8 0 010 1.14.81.81 0 01-.57.23h-3.21v1.39h4.22a.81.81 0 01.57 1.37.77.77 0 01-.57.23zm14.47-2v1.2a.78.78 0 01-.24.57.73.73 0 01-.56.23.78.78 0 01-.58-.23.81.81 0 01-.23-.57v-6a.81.81 0 01.23-.57.78.78 0 01.58-.24h3a2.83 2.83 0 012.82 2.82 2.75 2.75 0 01-.36 1.37 2.93 2.93 0 01-.95 1L73 51.63a.8.8 0 010 1.14.77.77 0 01-.57.23.73.73 0 01-.56-.23L70.09 51zm3.41-2.81A1.21 1.21 0 0070.42 47h-2.2v2.41h2.2a1.21 1.21 0 001.21-1.2zM83.82 53a3.82 3.82 0 112.7-6.51.8.8 0 01-.52 1.37.73.73 0 01-.56-.23 2.21 2.21 0 10-1.57 3.77 2.19 2.19 0 002.01-1.4h-2.06a.81.81 0 01-.57-1.37.77.77 0 01.57-.23h3a.8.8 0 01.84.8 3.81 3.81 0 01-3.84 3.8zM100 45.49a.79.79 0 01.36.5.77.77 0 01-.1.61l-2.39 3.82v1.78a.81.81 0 01-.23.57.8.8 0 01-1.37-.57v-1.78l-2.4-3.82a.86.86 0 01-.1-.61.79.79 0 01.36-.5.86.86 0 01.61-.1.79.79 0 01.5.36L97 48.68l1.83-2.93a.74.74 0 01.5-.36.84.84 0 01.67.1z" fill="#8bc53f"/><path d="M16.27 19.51L11 5.66C9.94 2.92 8 1.51 5.36 1.51A5.13 5.13 0 000 6.65c0 1.27 1.06 3.88 2.33 6.84l8.16 19.58z" fill="url(#a)"/><path d="M47 23.47c0 2.32 1.76 6.13 8.8 6.13 5.43 0 8.74-3.46 11.28-3.46a4.56 4.56 0 014.58 4.73c0 5.35-9 8.87-17.26 8.87-11.84 0-19.24-8.8-19.24-19.87C35.14 9.3 43.1 0 54.38 0 65.23 0 72.2 9.09 72.2 18.67c0 3.88-1.83 4.8-5.35 4.8zm14.23-7.54a7.48 7.48 0 00-7.14-6.63A7.47 7.47 0 0047 15.93zm17.43 10.92c3.45 0 5.85 3.17 10.57 3.17 2.25 0 3.1-1.06 3.1-2.18 0-2.26-2.4-2.47-8.53-5-5.64-2.32-8.67-4.44-8.67-10.36C75.13 6.2 80.49 0 89.3 0 93.74 0 102 2.11 102 7.82a4.46 4.46 0 01-4.58 4.65c-2.18 0-5.43-2.75-8.81-2.75-1.48 0-2.89.71-2.89 2.33 0 4.3 17.2 3.31 17.2 15.36 0 7.75-6.56 12.33-14.1 12.33-6.9 0-14.65-2.74-14.65-7.61-.02-3.13 2.02-5.28 4.49-5.28zM29.28.7a4.26 4.26 0 00-.64.05h.06c-2.59.37-4 2.83-5.31 5.94L7.82 43.27C6.55 46.16 6 47.43 6 49.33a5.07 5.07 0 004.69 4.89h-.06.69c3.8 0 4.72-2.32 6-5.21l16.27-38a12.88 12.88 0 001.34-4.79A5.27 5.27 0 0029.28.7z" fill="#929497"/></g></g></svg>